<svg xmlns="http://www.w3.org/2000/svg" style="display:none">
  <symbol id="icon-meat" viewBox="0 0 48 48" fill="none">
    <path d="M14 30c-4-4-5-11-2-16 4-6 14-8 20-4 5 3 7 11 4 17-4 8-14 11-22 3Z" stroke="currentColor" stroke-width="2" stroke-linejoin="round"/>
    <path d="M22 18c2 1 4 4 4 7" stroke="currentColor" stroke-width="2" stroke-linecap="round"/>
    <circle cx="28" cy="22" r="1.5" fill="currentColor"/>
  </symbol>
  <symbol id="icon-salad" viewBox="0 0 48 48" fill="none">
    <path d="M10 28c2-8 10-12 14-12s12 4 14 12" stroke="currentColor" stroke-width="2" stroke-linecap="round"/>
    <path d="M8 28h32c0 8-7 12-16 12S8 36 8 28Z" stroke="currentColor" stroke-width="2" stroke-linejoin="round"/>
    <path d="M24 16v4M18 18l2 3M30 18l-2 3" stroke="currentColor" stroke-width="2" stroke-linecap="round"/>
  </symbol>
  <symbol id="icon-delivery" viewBox="0 0 48 48" fill="none">
    <path d="M6 30h22V16H6v14Z" stroke="currentColor" stroke-width="2" stroke-linejoin="round"/>
    <path d="M28 22h8l6 6v6H28V22Z" stroke="currentColor" stroke-width="2" stroke-linejoin="round"/>
    <circle cx="14" cy="34" r="3.5" stroke="currentColor" stroke-width="2"/>
    <circle cx="36" cy="34" r="3.5" stroke="currentColor" stroke-width="2"/>
  </symbol>
  <symbol id="icon-party" viewBox="0 0 48 48" fill="none">
    <path d="M24 8v6M16 12l3 4M32 12l-3 4" stroke="currentColor" stroke-width="2" stroke-linecap="round"/>
    <path d="M12 38c2-10 8-16 12-16s10 6 12 16" stroke="currentColor" stroke-width="2" stroke-linecap="round"/>
    <path d="M10 38h28" stroke="currentColor" stroke-width="2" stroke-linecap="round"/>
  </symbol>
  <symbol id="icon-office" viewBox="0 0 48 48" fill="none">
    <rect x="10" y="12" width="28" height="26" rx="3" stroke="currentColor" stroke-width="2"/>
    <path d="M18 38V28h12v10M18 20h4M26 20h4M18 26h4M26 26h4" stroke="currentColor" stroke-width="2" stroke-linecap="round"/>
  </symbol>
  <symbol id="icon-wedding" viewBox="0 0 48 48" fill="none">
    <circle cx="18" cy="22" r="7" stroke="currentColor" stroke-width="2"/>
    <circle cx="30" cy="22" r="7" stroke="currentColor" stroke-width="2"/>
    <path d="M24 28c-2 4-6 8-10 10M24 28c2 4 6 8 10 10" stroke="currentColor" stroke-width="2" stroke-linecap="round"/>
  </symbol>
  <symbol id="icon-gluten-free" viewBox="0 0 48 48" fill="none">
    <path d="M24 8c6 6 8 14 8 22 0 6-3 10-8 10s-8-4-8-10c0-8 2-16 8-22Z" stroke="currentColor" stroke-width="2" stroke-linejoin="round"/>
    <path d="M16 20c4 2 8 2 16 0M16 28c4 2 8 2 16 0" stroke="currentColor" stroke-width="2" stroke-linecap="round"/>
    <path d="M12 12l24 24" stroke="currentColor" stroke-width="2.5" stroke-linecap="round"/>
  </symbol>
  <symbol id="icon-custom" viewBox="0 0 48 48" fill="none">
    <path d="M10 16h28M10 32h28" stroke="currentColor" stroke-width="2" stroke-linecap="round"/>
    <circle cx="18" cy="16" r="4" stroke="currentColor" stroke-width="2"/>
    <circle cx="30" cy="32" r="4" stroke="currentColor" stroke-width="2"/>
  </symbol>
  <symbol id="icon-garden" viewBox="0 0 48 48" fill="none">
    <path d="M24 38V22" stroke="currentColor" stroke-width="2" stroke-linecap="round"/>
    <path d="M24 26c-8-2-12-8-12-14 8 0 12 6 12 14Z" stroke="currentColor" stroke-width="2" stroke-linejoin="round"/>
    <path d="M24 28c8-2 12-8 12-14-8 0-12 6-12 14Z" stroke="currentColor" stroke-width="2" stroke-linejoin="round"/>
    <path d="M12 38h24" stroke="currentColor" stroke-width="2" stroke-linecap="round"/>
  </symbol>
  <symbol id="icon-home" viewBox="0 0 48 48" fill="none">
    <path d="M8 22 24 10l16 12" stroke="currentColor" stroke-width="2" stroke-linecap="round" stroke-linejoin="round"/>
    <path d="M12 20v16a2 2 0 0 0 2 2h20a2 2 0 0 0 2-2V20" stroke="currentColor" stroke-width="2" stroke-linejoin="round"/>
    <path d="M20 38V26h8v12" stroke="currentColor" stroke-width="2" stroke-linejoin="round"/>
  </symbol>
  <symbol id="icon-guests" viewBox="0 0 48 48" fill="none">
    <circle cx="24" cy="14" r="5" stroke="currentColor" stroke-width="2"/>
    <path d="M14 36c1.5-6 5-9 10-9s8.5 3 10 9" stroke="currentColor" stroke-width="2" stroke-linecap="round"/>
    <circle cx="11" cy="18" r="4" stroke="currentColor" stroke-width="2"/>
    <path d="M5 36c1-5 3.5-7.5 7-8" stroke="currentColor" stroke-width="2" stroke-linecap="round"/>
    <circle cx="37" cy="18" r="4" stroke="currentColor" stroke-width="2"/>
    <path d="M43 36c-1-5-3.5-7.5-7-8" stroke="currentColor" stroke-width="2" stroke-linecap="round"/>
  </symbol>
  <symbol id="icon-equipment" viewBox="0 0 48 48" fill="none">
    <path d="M12 20h24l-2 14H14l-2-14Z" stroke="currentColor" stroke-width="2" stroke-linejoin="round"/>
    <path d="M10 20h28" stroke="currentColor" stroke-width="2" stroke-linecap="round"/>
    <path d="M18 14h12v6H18z" stroke="currentColor" stroke-width="2" stroke-linejoin="round"/>
    <path d="M16 38h16M20 34v4M28 34v4" stroke="currentColor" stroke-width="2" stroke-linecap="round"/>
  </symbol>
  <symbol id="icon-arrow" viewBox="0 0 24 24" fill="none">
    <path d="M5 12h14M13 6l6 6-6 6" stroke="currentColor" stroke-width="2" stroke-linecap="round" stroke-linejoin="round"/>
  </symbol>
</svg>
